<?xml version="1.0" standalone="no"?>
<!DOCTYPE svg PUBLIC "-//W3C//DTD SVG 20010904//EN"
 "http://www.w3.org/TR/2001/REC-SVG-20010904/DTD/svg10.dtd">
<svg version="1.0" xmlns="http://www.w3.org/2000/svg"
 width="260.000000pt" height="260.000000pt" viewBox="0 0 260.000000 260.000000"
 preserveAspectRatio="xMidYMid meet">
<metadata>
Created by potrace 1.11, written by Peter Selinger 2001-2013
</metadata>
<g transform="translate(0.000000,260.000000) scale(0.100000,-0.100000)"
fill="#000000" stroke="none">
<path d="M1535 1758 c-146 -21 -232 -106 -240 -237 -8 -126 61 -195 231 -236
10 -3 46 -12 79 -20 33 -9 74 -20 91 -24 119 -31 177 -121 138 -216 -45 -112
-293 -125 -459 -24 -30 18 -55 37 -55 41 0 18 -19 6 -39 -24 l-20 -33 24 -22
c13 -13 29 -23 35 -23 5 0 10 -4 10 -8 0 -13 88 -47 171 -66 49 -11 190 -13
229 -3 77 19 110 36 147 75 50 51 67 103 60 182 -9 114 -85 176 -272 220 -186
43 -236 64 -264 110 -20 33 -21 92 -2 137 46 113 283 132 419 33 l39 -28 16
28 c24 40 22 47 -21 75 -85 56 -204 80 -317 63z"/>
<path d="M1035 1747 c-2 -7 -6 -154 -8 -327 -2 -173 -6 -324 -9 -336 -12 -40
-38 -95 -52 -110 -48 -47 -166 -59 -256 -25 -29 11 -55 20 -55 18 -1 -1 -7
-17 -13 -35 -10 -30 -9 -33 16 -46 53 -26 102 -37 169 -37 76 0 92 2 144 25
59 25 120 113 134 194 6 40 17 145 16 160 -1 6 -1 18 -2 25 0 6 0 118 1 249 1
130 0 240 -3 246 -9 14 -77 13 -82 -1z"/>
<path d="M525 1518 c-10 -8 -194 -120 -265 -161 -19 -10 -54 -33 -77 -49 -24
-16 -43 -27 -43 -24 0 2 -22 -10 -50 -29 -27 -18 -54 -35 -60 -37 -6 -2 -13
-15 -14 -29 -3 -23 7 -32 85 -78 48 -28 103 -63 123 -76 20 -13 36 -22 36 -18
0 3 8 -1 18 -9 9 -8 24 -18 32 -22 22 -10 52 -28 87 -53 17 -13 34 -23 37 -23
4 0 24 -11 46 -25 21 -14 45 -26 51 -27 13 -3 21 63 10 80 -3 5 -82 56 -176
114 -215 131 -215 132 -215 138 0 3 21 17 48 32 71 42 105 62 117 71 5 4 59
38 120 75 104 64 109 69 111 102 1 42 -7 61 -21 48z"/>
<path d="M2055 1479 c1 -49 -12 -39 215 -176 96 -59 177 -108 179 -109 4 -3
-25 -34 -32 -34 -7 0 -211 -123 -217 -131 -3 -3 -9 -8 -15 -10 -25 -10 -125
-72 -126 -77 -3 -21 -6 -92 -3 -92 5 0 61 32 162 94 51 31 97 56 102 56 4 0
10 4 12 8 2 4 56 39 121 77 65 38 122 76 127 86 12 22 -10 49 -66 81 -38 21
-258 154 -342 206 -20 12 -44 25 -52 29 -8 4 -21 13 -28 20 -25 24 -38 15 -37
-28z"/>
</g>
</svg>
